Results
version=1
nRows=12
nColumns=33
inDegrees=yes
endheader
time	pelvis_tilt	pelvis_tx	pelvis_ty	hip_flexion_r	knee_angle_r	knee_angle_pat_r	ankle_angle_r	pelvis_tilt_u	pelvis_tx_u	pelvis_ty_u	hip_flexion_r_u	knee_angle_r_u	knee_angle_pat_r_u	ankle_angle_r_u	bifemlh_r.activation	bifemlh_r.fiber_length	bifemsh_r.activation	bifemsh_r.fiber_length	glut_max2_r.activation	glut_max2_r.fiber_length	psoas_r.activation	psoas_r.fiber_length	rect_fem_r.activation	rect_fem_r.fiber_length	vas_int_r.activation	vas_int_r.fiber_length	med_gas_r.activation	med_gas_r.fiber_length	soleus_r.activation	soleus_r.fiber_length	tib_ant_r.activation	tib_ant_r.fiber_length
      0.36666666700000000000	      2.47338713658229500000	      0.03833512978059171900	      1.08941495135218020000	     19.82707260605760900000	    -61.31700821852982100000	    -61.31700964809198200000	      7.18607434726052040000	      0.00000000000000000000	      0.00000000000000000000	      0.00000000000000000000	      0.00000000000000000000	      0.00000000000000000000	      0.00000000000000000000	      0.00000000000000000000	      0.00000000000000000000	      0.07763499368300030800	      0.00000000000000000000	      0.17953693939282311000	      0.00000000000000000000	      0.07849544251074949700	      0.00000000000000000000	      0.11569596046695353000	      0.00000000000000000000	      0.15669025643627973000	      0.00000000000000000000	      0.11104731894711886000	      0.00000000000000000000	      0.09647038999410337300	      0.00000000000000000000	      0.09524887103235467300	      0.00000000000000000000	      0.08667460353155345700
      0.38333333366666666000	      2.59507018750486160000	      0.03544995834953011700	      1.08937242369695570000	     20.81777840983285100000	    -58.21168580170149200000	    -58.21168700304093600000	      7.69650543913979050000	      0.00000000000000000000	      0.00000000000000000000	      0.00000000000000000000	      0.00000000000000000000	      0.00000000000000000000	      0.00000000000000000000	      0.00000000000000000000	      0.00000000000000000000	      0.07763499368300030800	      0.00000000000000000000	      0.17953693939282311000	      0.00000000000000000000	      0.07849544251074949700	      0.00000000000000000000	      0.11569596046695353000	      0.00000000000000000000	      0.15669025643627973000	      0.00000000000000000000	      0.11104731894711886000	      0.00000000000000000000	      0.09647038999410337300	      0.00000000000000000000	      0.09524887103235467300	      0.00000000000000000000	      0.08667460353155345700
      0.40000000033333333000	      2.53449271833927090000	      0.03226701703327361500	      1.08824371036634120000	     21.81970656538191700000	    -54.62071886076740400000	    -54.62071848410880600000	      8.25128870664140380000	      0.00000000000000000000	      0.00000000000000000000	      0.00000000000000000000	      0.00000000000000000000	      0.00000000000000000000	      0.00000000000000000000	      0.00000000000000000000	      0.00000000000000000000	      0.07763499368300030800	      0.00000000000000000000	      0.17953693939282311000	      0.00000000000000000000	      0.07849544251074949700	      0.00000000000000000000	      0.11569596046695353000	      0.00000000000000000000	      0.15669025643627973000	      0.00000000000000000000	      0.11104731894711886000	      0.00000000000000000000	      0.09647038999410337300	      0.00000000000000000000	      0.09524887103235467300	      0.00000000000000000000	      0.08667460353155345700
      0.41666666699999999000	      2.47698719335892870000	      0.02919479143932758600	      1.08712518411054710000	     22.48429788969089700000	    -50.34741380214666200000	    -50.34741555573399600000	      8.72517960215638940000	      0.00000000000000000000	      0.00000000000000000000	      0.00000000000000000000	      0.00000000000000000000	      0.00000000000000000000	      0.00000000000000000000	      0.00000000000000000000	      0.00000000000000000000	      0.07763499368300030800	      0.00000000000000000000	      0.17953693939282311000	      0.00000000000000000000	      0.07849544251074949700	      0.00000000000000000000	      0.11569596046695353000	      0.00000000000000000000	      0.15669025643627973000	      0.00000000000000000000	      0.11104731894711886000	      0.00000000000000000000	      0.09647038999410337300	      0.00000000000000000000	      0.09524887103235467300	      0.00000000000000000000	      0.08667460353155345700
      0.43333333366666665000	      2.29333529777783830000	      0.02656209321589562600	      1.08526394452138430000	     22.96099857802319700000	    -45.51883002657964300000	    -45.51883062613324400000	      9.16302456537547270000	      0.00000000000000000000	      0.00000000000000000000	      0.00000000000000000000	      0.00000000000000000000	      0.00000000000000000000	      0.00000000000000000000	      0.00000000000000000000	      0.00000000000000000000	      0.07763499368300030800	      0.00000000000000000000	      0.17953693939282311000	      0.00000000000000000000	      0.07849544251074949700	      0.00000000000000000000	      0.11569596046695353000	      0.00000000000000000000	      0.15669025643627973000	      0.00000000000000000000	      0.11104731894711886000	      0.00000000000000000000	      0.09647038999410337300	      0.00000000000000000000	      0.09524887103235467300	      0.00000000000000000000	      0.08667460353155345700
      0.45000000033333332000	      2.34405673859897810000	      0.02428902899430297400	      1.08317282552924900000	     22.92705370249179000000	    -40.26273698030998800000	    -40.26273718765745000000	      9.52426199505919690000	      0.00000000000000000000	      0.00000000000000000000	      0.00000000000000000000	      0.00000000000000000000	      0.00000000000000000000	      0.00000000000000000000	      0.00000000000000000000	      0.00000000000000000000	      0.07763499368300030800	      0.00000000000000000000	      0.17953693939282311000	      0.00000000000000000000	      0.07849544251074949700	      0.00000000000000000000	      0.11569596046695353000	      0.00000000000000000000	      0.15669025643627973000	      0.00000000000000000000	      0.11104731894711886000	      0.00000000000000000000	      0.09647038999410337300	      0.00000000000000000000	      0.09524887103235467300	      0.00000000000000000000	      0.08667460353155345700
      0.46666666699999998000	      2.15448660888425940000	      0.02168904065992535700	      1.08023839248041600000	     22.93652922020533700000	    -34.62909453049648800000	    -34.62909435046724100000	      9.73567846163142470000	      0.00000000000000000000	      0.00000000000000000000	      0.00000000000000000000	      0.00000000000000000000	      0.00000000000000000000	      0.00000000000000000000	      0.00000000000000000000	      0.00000000000000000000	      0.07763499368300030800	      0.00000000000000000000	      0.17953693939282311000	      0.00000000000000000000	      0.07849544251074949700	      0.00000000000000000000	      0.11569596046695353000	      0.00000000000000000000	      0.15669025643627973000	      0.00000000000000000000	      0.11104731894711886000	      0.00000000000000000000	      0.09647038999410337300	      0.00000000000000000000	      0.09524887103235467300	      0.00000000000000000000	      0.08667460353155345700
      0.48333333366666664000	      2.03663958663252580000	      0.01987722431767053500	      1.07756879456694650000	     22.53419931583471200000	    -28.54959132402967000000	    -28.54959158745181100000	      9.79590866896091410000	      0.00000000000000000000	      0.00000000000000000000	      0.00000000000000000000	      0.00000000000000000000	      0.00000000000000000000	      0.00000000000000000000	      0.00000000000000000000	      0.00000000000000000000	      0.07763499368300030800	      0.00000000000000000000	      0.17953693939282311000	      0.00000000000000000000	      0.07849544251074949700	      0.00000000000000000000	      0.11569596046695353000	      0.00000000000000000000	      0.15669025643627973000	      0.00000000000000000000	      0.11104731894711886000	      0.00000000000000000000	      0.09647038999410337300	      0.00000000000000000000	      0.09524887103235467300	      0.00000000000000000000	      0.08667460353155345700
      0.50000000033333336000	      1.84213280865924720000	      0.01824220523018485800	      1.07423213705140850000	     22.08618519517505500000	    -22.40238852977340000000	    -22.40238922748177700000	      9.83374788676666260000	      0.00000000000000000000	      0.00000000000000000000	      0.00000000000000000000	      0.00000000000000000000	      0.00000000000000000000	      0.00000000000000000000	      0.00000000000000000000	      0.00000000000000000000	      0.07763499368300030800	      0.00000000000000000000	      0.17953693939282311000	      0.00000000000000000000	      0.07849544251074949700	      0.00000000000000000000	      0.11569596046695353000	      0.00000000000000000000	      0.15669025643627973000	      0.00000000000000000000	      0.11104731894711886000	      0.00000000000000000000	      0.09647038999410337300	      0.00000000000000000000	      0.09524887103235467300	      0.00000000000000000000	      0.08667460353155345700
      0.51666666699999997000	      1.62895842838912900000	      0.01643438536117560300	      1.07048584038510340000	     21.64978206571531100000	    -16.49886452381604900000	    -16.49886374091944000000	      9.86822631840431970000	      0.00000000000000000000	      0.00000000000000000000	      0.00000000000000000000	      0.00000000000000000000	      0.00000000000000000000	      0.00000000000000000000	      0.00000000000000000000	      0.00000000000000000000	      0.07763499368300030800	      0.00000000000000000000	      0.17953693939282311000	      0.00000000000000000000	      0.07849544251074949700	      0.00000000000000000000	      0.11569596046695353000	      0.00000000000000000000	      0.15669025643627973000	      0.00000000000000000000	      0.11104731894711886000	      0.00000000000000000000	      0.09647038999410337300	      0.00000000000000000000	      0.09524887103235467300	      0.00000000000000000000	      0.08667460353155345700
      0.53333333366666669000	      1.39113717423711060000	      0.01490304582768519300	      1.06629861904879620000	     21.23053949580095800000	    -11.04606202274745300000	    -11.04606278849729000000	      9.93160926841958340000	      0.00000000000000000000	      0.00000000000000000000	      0.00000000000000000000	      0.00000000000000000000	      0.00000000000000000000	      0.00000000000000000000	      0.00000000000000000000	      0.00000000000000000000	      0.07763499368300030800	      0.00000000000000000000	      0.17953693939282311000	      0.00000000000000000000	      0.07849544251074949700	      0.00000000000000000000	      0.11569596046695353000	      0.00000000000000000000	      0.15669025643627973000	      0.00000000000000000000	      0.11104731894711886000	      0.00000000000000000000	      0.09647038999410337300	      0.00000000000000000000	      0.09524887103235467300	      0.00000000000000000000	      0.08667460353155345700
      0.55000000033333341000	      1.28500840266630420000	      0.01382324534464388400	      1.06239403561989860000	     20.65135337289520500000	     -6.28095869656520910000	     -6.28095976448005540000	      9.94444404688934470000	      0.00000000000000000000	      0.00000000000000000000	      0.00000000000000000000	      0.00000000000000000000	      0.00000000000000000000	      0.00000000000000000000	      0.00000000000000000000	      0.00000000000000000000	      0.07763499368300030800	      0.00000000000000000000	      0.17953693939282311000	      0.00000000000000000000	      0.07849544251074949700	      0.00000000000000000000	      0.11569596046695353000	      0.00000000000000000000	      0.15669025643627973000	      0.00000000000000000000	      0.11104731894711886000	      0.00000000000000000000	      0.09647038999410337300	      0.00000000000000000000	      0.09524887103235467300	      0.00000000000000000000	      0.08667460353155345700
